{"title":"Unrivaled.2010.720p.BRRip.x264.Feel-Free","uid":6234510,"size":2601489420,"categoryP":"video","categoryS":"hd___movies","magnet":"?xt=urn:btih:7573babed7a993301de09d54e2b0e9d0540f0388&amp;dn=Unrivaled.2010.720p.BRRip.x264.Feel-Free&amp;tr=udp%3A%2F%2Ftracker.openbittorrent.com%3A80&amp;tr=udp%3A%2F%2Fopen.demonii.com%3A1337&amp;tr=udp%3A%2F%2Ftracker.coppersurfer.tk%3A6969&amp;tr=udp%3A%2F%2Fexodus.desync.com%3A6969","seeders":0,"leechers":1,"uploader":"hiest","files":-1,"time":1299819064,"description":"######## ######## ######## ##               ######## ########  ######## ######## \n##       ##       ##       ##               ##       ##     ## ##       ##       \n##       ##       ##       ##               ##       ##     ## ##       ##       \n######   ######   ######   ##       ####### ######   ########  ######   ######   \n##       ##       ##       ##               ##       ##   ##   ##       ##       \n##       ##       ##       ##               ##       ##    ##  ##       ##       \n##       ######## ######## ########         ##       ##     ## ######## ######## \n\nGenre:Action | Drama | Sport\nLanguage:English\nIMDb: &lt;a href=&quot;\nhttp://www.imdb.com/title/tt1426325/&quot; rel=&quot;nofollow&quot; target=&quot;_NEW&quot;&gt;\nhttp://www.imdb.com/title/tt1426325/&lt;/a&gt;\nSource:1080p.BluRay.x264-Japhson\n\nFormat : MPEG-4\nFormat profile : Base Media\nCodec ID : isom\nFile size : 2.42 GiB\nDuration : 1h 48mn\nOverall bit rate : 3 185 Kbps\n\nVideo\nFormat profile : &lt;a class=&quot;__cf_email__&quot; href=&quot;/cdn-cgi/l/email-protection&quot; data-cfemail=&quot;4e062729260e027a607f&quot;&gt;[email&amp;#160;protected]&lt;/a&gt;&lt;script cf-hash='f9e31' type=&quot;text/javascript&quot;&gt;\n/* &lt;![CDATA[ */!function(){try{var t=&quot;currentScript&quot;in document?document.currentScript:function(){for(var t=document.getElementsByTagName(&quot;script&quot;),e=t.length;e--;)if(t[e].getAttribute(&quot;cf-hash&quot;))return t[e]}();if(t&amp;&amp;t.previousSibling){var e,r,n,i,c=t.previousSibling,a=c.getAttribute(&quot;data-cfemail&quot;);if(a){for(e=&quot;&quot;,r=parseInt(a.substr(0,2),16),n=2;a.length-n;n+=2)i=parseInt(a.substr(n,2),16)^r,e+=String.fromCharCode(i);e=document.createTextNode(e),c.parentNode.replaceChild(e,c)}}}catch(u){}}();/* ]]&gt; */&lt;/script&gt;\nFormat settings, CABAC : Yes\nFormat settings, ReFrames : 3 frames\nCodec ID : avc1\nCodec ID/Info : Advanced Video Coding\nDuration : 1h 48mn\nBit rate mode : Variable\nBit rate : 2 760 Kbps\nMaximum bit rate : 17.6 Mbps\nWidth : 1 280 pixels\nHeight : 720 pixels\nDisplay aspect ratio : 16:9\nFrame rate mode : Constant\nFrame rate : 23.976 fps\nColor space : YUV\nChroma subsampling : 4:2:0\nBit depth : 8 bits\nScan type : Progressive\nBits/(Pixel*Frame) : 0.125\nStream size : 2.08 GiB (86%)\nWriting library : x264 \n\nAudio\nID : 2\nFormat : AAC\nFormat/Info : Advanced Audio Codec\nFormat version : Version 4\nFormat profile : LC\nFormat settings, SBR : No\nCodec ID : 40\nDuration : 1h 48mn\nBit rate mode : Variable\nBit rate : 443 Kbps\nMaximum bit rate : 572 Kbps\nChannel(s) : 6 channels\nChannel positions : Front: L C R, Side: L R, LFE\nSampling rate : 48.0 KHz\nStream size : 344 MiB (14%)\n\n\nPlot:\nThe best fighter in the world works two jobs. The only problem... he doesn't know he's the best\n\n\nGreets:\n\nINK,CRYS,IMAGINE,LKRG,FXG,3Li,FLAWL3SS,TA,iLLUSiON,ViSiON,DTRG SAFCuk009,LU,TheFalcon007,MYSTiC,PrisM,Noir,WBZ,LAP,Rx,Kingdom,SAFCuk009+Fabreezy,HDLiTE,TWiZTED,ExtraTorrentRG.ELEKTRI4KA,MAGNAT,CM8\nAnd to all the other p2p grps past and present\n\n\n\n\n\n================================== &lt;a href=&quot;\nhttp://thepiratebay.se/user/hiest&quot; rel=&quot;nofollow&quot; target=&quot;_NEW&quot;&gt;\nhttp://thepiratebay.se/user/hiest&lt;/a&gt;\n==================================\n\n\n\n\n\nScreen Shots:\n &lt;a href=&quot;\nhttp://www.postimg.com/31000/photo-30001.jpg&quot; rel=&quot;nofollow&quot; target=&quot;_NEW&quot;&gt;\nhttp://www.postimg.com/31000/photo-30001.jpg&lt;/a&gt;\n &lt;a href=&quot;\nhttp://www.postimg.com/30000/photo-29998.jpg&quot; rel=&quot;nofollow&quot; target=&quot;_NEW&quot;&gt;\nhttp://www.postimg.com/30000/photo-29998.jpg&lt;/a&gt;\n &lt;a href=&quot;\nhttp://www.postimg.com/30000/photo-30000.jpg&quot; rel=&quot;nofollow&quot; target=&quot;_NEW&quot;&gt;\nhttp://www.postimg.com/30000/photo-30000.jpg&lt;/a&gt;\n &lt;a href=&quot;\nhttp://www.postimg.com/30000/photo-29999.jpg&quot; rel=&quot;nofollow&quot; target=&quot;_NEW&quot;&gt;\nhttp://www.postimg.com/30000/photo-29999.jpg&lt;/a&gt;\n\n######## ######## ######## ##               ######## ########  ######## ######## \n##       ##       ##       ##               ##       ##     ## ##       ##       \n##       ##       ##       ##               ##       ##     ## ##       ##       \n######   ######   ######   ##       ####### ######   ########  ######   ######   \n##       ##       ##       ##               ##       ##   ##   ##       ##       \n##       ##       ##       ##               ##       ##    ##  ##       ##       \n##       ######## ######## ########         ##       ##     ## ######## ######## \n","torrent":{"xt":"urn:btih:7573babed7a993301de09d54e2b0e9d0540f0388","amp;dn":"Unrivaled.2010.720p.BRRip.x264.Feel-Free","amp;tr":["udp%3A%2F%2Ftracker.openbittorrent.com%3A80","udp%3A%2F%2Fopen.demonii.com%3A1337","udp%3A%2F%2Ftracker.coppersurfer.tk%3A6969","udp%3A%2F%2Fexodus.desync.com%3A6969"],"infoHash":"7573babed7a993301de09d54e2b0e9d0540f0388","infoHashBuffer":{"type":"Buffer","data":[117,115,186,190,215,169,147,48,29,224,157,84,226,176,233,208,84,15,3,136]},"announce":[],"urlList":[]}}